<svg width="24" height="24" viewBox="0 0 24 24" fill="none" xmlns="http://www.w3.org/2000/svg">
<path fill-rule="evenodd" clip-rule="evenodd" d="M20 12C20 16.4183 16.4183 20 12 20C7.58172 20 4 16.4183 4 12C4 7.58172 7.58172 4 12 4C16.4183 4 20 7.58172 20 12ZM14.8591 16.9487C14.0181 17.4356 13.0416 17.7143 12 17.7143C8.84409 17.7143 6.28571 15.1559 6.28571 12C6.28571 10.9584 6.56441 9.98186 7.0513 9.14093L14.8591 16.9487ZM16.5717 15.4288L8.57119 7.42833C9.52627 6.71086 10.7135 6.28571 12 6.28571C15.1559 6.28571 17.7143 8.84409 17.7143 12C17.7143 13.2865 17.2891 14.4737 16.5717 15.4288Z" fill="#FF0000"/>
</svg>
