<svg width="22" height="24" viewBox="0 0 22 24" fill="none" xmlns="http://www.w3.org/2000/svg">
<path fill-rule="evenodd" clip-rule="evenodd" d="M16.3911 0.922346L16.3923 1.82189C19.759 2.08096 21.9831 4.33343 21.9867 7.7877L22 17.8986C22.0048 21.6648 19.5949 23.982 15.7322 23.988L6.29674 24C2.45812 24.0048 0.0181092 21.6324 0.0132814 17.8554L8.1303e-06 7.86326C-0.00481965 4.38621 2.14075 2.13973 5.50754 1.83629L5.50633 0.936734C5.50513 0.408999 5.90334 0.0120027 6.43431 0.0120027C6.96527 0.0108027 7.36349 0.406599 7.3647 0.934334L7.36591 1.77391L14.5339 1.76433L14.5327 0.924747C14.5315 0.397011 14.9297 0.00120272 15.4607 2.72126e-06C15.9796 -0.00119728 16.3899 0.394611 16.3911 0.922346ZM1.85958 8.23388L20.1295 8.2099V7.7901C20.0777 5.2114 18.7599 3.85847 16.3946 3.65698L16.3959 4.58051C16.3959 5.09626 15.9868 5.50524 15.4679 5.50524C14.937 5.50644 14.5375 5.09864 14.5375 4.58291L14.5364 3.6114L7.36832 3.62099L7.36953 4.59131C7.36953 5.10824 6.97252 5.51604 6.44155 5.51604C5.91059 5.51724 5.51115 5.11065 5.51115 4.59371L5.50996 3.67017C3.15682 3.90165 1.85475 5.25937 1.85837 7.86086L1.85958 8.23388ZM14.9599 13.6852V13.6984C14.972 14.2501 15.4305 14.6687 15.9868 14.6567C16.5298 14.6435 16.9631 14.1865 16.951 13.6348C16.9257 13.107 16.49 12.6764 15.9482 12.6776C15.3931 12.6896 14.9586 13.1334 14.9599 13.6852ZM15.9566 19.0704C15.4016 19.0584 14.9539 18.6038 14.9527 18.0522C14.9406 17.5004 15.3858 17.0435 15.941 17.0303H15.953C16.5202 17.0303 16.98 17.4848 16.98 18.0486C16.9812 18.6122 16.5226 19.0692 15.9566 19.0704ZM9.98812 13.7044C10.0123 14.2561 10.472 14.6867 11.0271 14.6627C11.5702 14.6375 12.0034 14.1817 11.9792 13.63C11.9659 13.0902 11.5194 12.6704 10.9764 12.6716C10.4214 12.6956 9.98689 13.1526 9.98812 13.7044ZM11.032 19.0165C10.4769 19.0405 10.0183 18.6098 9.993 18.0582C9.993 17.5064 10.4262 17.0507 10.9813 17.0255C11.5243 17.0243 11.972 17.444 11.9841 17.9826C12.0094 18.5356 11.5751 18.9913 11.032 19.0165ZM5.0164 13.7464C5.04054 14.298 5.5003 14.7299 6.0554 14.7047C6.59843 14.6807 7.03165 14.2237 7.0063 13.672C6.99424 13.1322 6.54775 12.7124 6.0035 12.7136C5.44841 12.7376 5.01519 13.1946 5.0164 13.7464ZM6.06023 19.0225C5.50513 19.0477 5.04656 18.6158 5.02123 18.0642C5.02002 17.5124 5.45444 17.0555 6.00954 17.0315C6.55257 17.0303 7.00027 17.45 7.01234 17.9898C7.03767 18.5416 6.60446 18.9985 6.06023 19.0225Z" fill="#A1A9BF"/>
</svg>
