<svg width="16" height="16" viewBox="0 0 16 16" fill="none" xmlns="http://www.w3.org/2000/svg">
<path fill-rule="evenodd" clip-rule="evenodd" d="M6.28592 5.9795H8.76192V7.21283C9.11859 6.5035 10.0333 5.86616 11.4073 5.86616C14.0413 5.86616 14.6666 7.27816 14.6666 9.86883V14.6668H11.9999V10.4588C11.9999 8.9835 11.6433 8.1515 10.7353 8.1515C9.47592 8.1515 8.95259 9.04816 8.95259 10.4582V14.6668H6.28592V5.9795ZM1.71325 14.5535H4.37992V5.86616H1.71325V14.5535ZM4.76192 3.0335C4.76202 3.25701 4.71769 3.47832 4.63151 3.68455C4.54533 3.89079 4.41902 4.07784 4.25992 4.23483C3.93752 4.55525 3.50113 4.7346 3.04659 4.7335C2.59285 4.73319 2.15746 4.5543 1.83459 4.2355C1.67606 4.07797 1.55018 3.89071 1.46415 3.68445C1.37812 3.47819 1.33364 3.25698 1.33325 3.0335C1.33325 2.58216 1.51325 2.15016 1.83525 1.8315C2.15784 1.51227 2.59341 1.3333 3.04725 1.3335C3.50192 1.3335 3.93792 1.51283 4.25992 1.8315C4.58125 2.15016 4.76192 2.58216 4.76192 3.0335Z" fill="#4C6FFF"/>
</svg>
