<svg width="216" height="56" viewBox="0 0 216 56" fill="none" xmlns="http://www.w3.org/2000/svg">
<path d="M59.1114 34.4687H54.104C54.2012 34.0569 54.2899 33.6422 54.3671 33.2247H59.1114V34.4687V34.4687ZM41.1378 34.4687H33.0732V24.1421V33.2304H41.5839C41.4505 33.6537 41.2989 34.0684 41.1292 34.4744" fill="#00AEEF"/>
<path d="M28.2231 55.9886C10.4925 55.9886 0 42.602 0 27.9943C0 13.3866 10.4982 0 28.2231 0C42.8079 0 52.5139 9.15126 55.4366 20.5903H53.8609C53.7036 20.0184 53.5263 19.4464 53.3347 18.8745C49.9659 9.07691 41.1092 1.52712 28.2231 1.52712C11.4534 1.52712 1.5214 14.193 1.5214 28.0086C1.5214 41.8241 11.4591 54.4872 28.2288 54.4872C40.48 54.4872 49.0879 47.6666 52.8028 38.5754H54.4386C50.6522 48.4845 41.4438 56 28.2231 56" fill="#00AEEF"/>
<path d="M52.8029 38.564H52.7857C53.1651 37.6344 53.4925 36.6844 53.7666 35.7185H40.5659C40.7756 35.3143 40.9663 34.9016 41.1379 34.4802H54.1069C53.7806 35.8734 53.3455 37.2388 52.8057 38.564" fill="#EC008C"/>
<path d="M54.104 34.4687H41.1378C41.3055 34.0626 41.4571 33.648 41.5925 33.2247H54.3699C54.2927 33.6422 54.204 34.0569 54.1068 34.4687H54.104ZM33.0818 33.219V24.1421V33.2276" fill="#2E3192"/>
<path d="M28.2288 54.4873C11.4591 54.4873 1.5271 41.8242 1.5271 28.0058C1.5271 14.1874 11.4591 1.52434 28.2288 1.52434C41.1149 1.52434 49.963 9.07413 53.3404 18.8717C51.748 14.1546 48.8105 10.0063 44.8898 6.93789C40.5658 3.58338 34.9435 1.52148 28.2259 1.52148C11.4677 1.52148 1.53854 14.1845 1.53854 27.9944C1.53854 36.4993 5.30199 44.581 12.1197 49.5113C16.3693 52.6027 21.8029 54.4758 28.2488 54.4758C40.4943 54.4758 49.0936 47.6581 52.8056 38.5698H52.8228C49.0879 47.6553 40.48 54.4873 28.2288 54.4873Z" fill="#2E3192"/>
<path d="M33.0789 33.2276H33.0703V24.1421H59.1114V24.1478H33.0789V33.2276Z" fill="#363639"/>
<path d="M12.1082 49.5113C5.302 44.5667 1.5271 36.4993 1.5271 27.9944C1.5271 14.1845 11.4562 1.52148 28.2145 1.52148C34.9321 1.52148 40.5544 3.5748 44.8755 6.92645C40.5658 3.58338 34.9492 1.53006 28.2373 1.53006C11.4762 1.53006 1.54712 14.1903 1.54712 28.0029C1.54712 36.5022 5.30771 44.5667 12.1082 49.5113" fill="#363639"/>
<path d="M28.2175 43.334C22.3006 43.334 17.9623 40.0224 15.7374 35.4525C14.627 33.1315 14.0542 30.59 14.0616 28.0171C14.0616 21.9486 17.1616 16.2034 22.5637 13.8212C24.348 13.0503 26.2738 12.6607 28.2175 12.6773C34.1057 12.6773 38.4669 16.006 40.6975 20.5988H53.8524C53.9439 20.942 54.0326 21.2852 54.1127 21.6312H39.994C37.9921 17.1385 33.8741 13.824 28.226 13.824C20.0471 13.824 15.1226 20.6617 15.1226 28.0113C15.1226 35.361 20.0471 42.1901 28.226 42.1901C33.2964 42.1901 37.1399 39.5219 39.3134 35.727H40.5659C40.0476 36.7445 39.4143 37.6992 38.6785 38.5725H38.6527C37.376 40.0912 35.7771 41.3064 33.9721 42.13C32.167 42.9537 30.2013 43.3649 28.2175 43.334" fill="#FFF200"/>
<path d="M28.2259 43.334C25.3328 43.3743 22.503 42.4852 20.1528 40.7974C18.263 39.401 16.7464 37.5603 15.7373 35.4382C17.9622 40.0138 22.3005 43.3197 28.2173 43.3197C30.2016 43.35 32.1677 42.9378 33.9727 42.1132C35.7778 41.2886 37.3765 40.0722 38.6526 38.5525H38.6784C37.4012 40.0765 35.8003 41.2965 33.9921 42.1236C32.1839 42.9508 30.2141 43.3643 28.2259 43.334ZM53.8609 20.5703H40.706C38.4753 15.9775 34.1285 12.6487 28.2259 12.6487C26.2822 12.6321 24.3565 13.0217 22.5722 13.7926C24.3629 13.0196 26.2956 12.6299 28.2459 12.6487C31.0548 12.6144 33.8043 13.4583 36.1103 15.0624C37.5538 16.0856 38.7901 17.3733 39.7537 18.8573V18.8573H53.3318C53.5234 19.4292 53.7007 20.0012 53.858 20.5731" fill="#00A651"/>
<path d="M52.7857 38.564H38.6785C39.4143 37.6907 40.0475 36.736 40.5659 35.7185H53.7666C53.4925 36.6844 53.165 37.6344 52.7857 38.564" fill="#ED1C24"/>
<path d="M28.2374 43.3512C25.3396 43.3927 22.5053 42.5014 20.1528 40.8089C22.5045 42.4926 25.3341 43.3776 28.226 43.3341C30.2141 43.3643 32.184 42.9508 33.9921 42.1237C35.8003 41.2965 37.4013 40.0765 38.6784 38.5525H52.7857H38.687C37.4107 40.0768 35.8103 41.297 34.0025 42.1241C32.1948 42.9513 30.2252 43.3647 28.2374 43.3341V43.3512ZM39.7508 18.843C38.7873 17.359 37.551 16.0713 36.1075 15.0481C37.5527 16.0712 38.7909 17.3589 39.7566 18.843" fill="#363639"/>
<path d="M59.1199 33.2363H59.1113V33.2306V33.2277V24.1479H59.1199V33.2363Z" fill="#231F20"/>
<path d="M59.1116 33.2277H33.0791V24.1479H59.1116V33.2277Z" fill="black"/>
<path d="M28.2373 54.4871C21.7913 54.4871 16.3578 52.6139 12.1082 49.5225C16.3549 52.6082 21.7885 54.4785 28.2258 54.4785C40.4685 54.4785 49.0678 47.6637 52.7826 38.5811C49.065 47.6694 40.4713 54.4871 28.2258 54.4871" fill="#000002"/>
<path d="M53.3375 18.8601C51.7455 14.1443 48.8102 9.99637 44.8926 6.92627C48.8133 9.99465 51.7508 14.1429 53.3432 18.8601" fill="#000002"/>
<path d="M15.7373 35.4496C14.6218 33.1231 14.047 30.5743 14.0558 27.9942C14.0558 21.9286 17.1586 16.1834 22.5636 13.8069C17.1615 16.1891 14.0615 21.9343 14.0615 28.0028C14.0541 30.5757 14.6269 33.1172 15.7373 35.4382" fill="#1C1A00"/>
<path d="M20.1526 40.8089C16.2432 37.972 14.0498 33.0875 14.0498 27.9942C14.0498 20.0441 19.3776 12.6458 28.2257 12.6458C31.0391 12.6105 33.7931 13.4565 36.1015 15.0652C33.7955 13.4611 31.046 12.6173 28.2371 12.6516C26.2868 12.6328 24.3541 13.0224 22.5633 13.7955C17.1584 16.1719 14.0555 21.9172 14.0555 27.9828C14.0467 30.5629 14.6216 33.1116 15.7371 35.4382C16.7462 37.5603 18.2627 39.401 20.1526 40.7974V40.8089ZM53.3259 18.8544H39.7563H53.3373" fill="#001300"/>
<path d="M28.2259 54.4672C21.7886 54.4672 16.355 52.5969 12.1082 49.5112C5.30772 44.5667 1.54712 36.5021 1.54712 28.0029C1.54712 14.1902 11.4762 1.53003 28.2373 1.53003C34.9492 1.53003 40.5687 3.57762 44.8869 6.92641C48.8046 9.99651 51.7398 14.1444 53.3318 18.8602H39.7508C38.7851 17.3761 37.5469 16.0884 36.1017 15.0653C33.7933 13.4566 31.0394 12.6106 28.2259 12.646C19.3778 12.646 14.05 20.0442 14.05 27.9943C14.05 33.0962 16.2435 37.9721 20.1528 40.809C22.5053 42.5014 25.3396 43.3927 28.2373 43.3513C30.2251 43.3819 32.1947 42.9686 34.0025 42.1414C35.8102 41.3142 37.4106 40.094 38.6869 38.5698H52.7827C49.065 47.6524 40.4686 54.4672 28.2259 54.4672" fill="black"/>
<path d="M85.5299 34.1807C83.8672 34.6062 82.1555 34.8091 80.4395 34.7841C76.9334 34.7841 72.8811 33.0111 72.8811 28.0351C72.8811 23.0591 76.3672 21.1716 81.1945 21.1716C82.0524 21.1716 83.8912 21.266 85.1724 21.7436L84.8864 24.6034C83.9075 24.051 82.8046 23.7558 81.6806 23.7454C78.8208 23.7454 76.4987 24.9322 76.4987 28.0065C76.4987 30.5803 78.3261 32.1531 80.8913 32.1531C81.3172 32.1655 81.741 32.0886 82.1353 31.9272V29.3248H80.082V26.8368H85.5156L85.5299 34.1807Z" fill="#231F20"/>
<path d="M91.6327 21.3977H95.9224L100.996 34.5526H97.1578L96.1769 31.7443H91.2381L90.2 34.5555H86.6367L91.6327 21.3977ZM93.7833 24.1145H93.7461L92.0474 29.2621H95.3476L93.7833 24.1145Z" fill="#231F20"/>
<path d="M102.105 21.3977H105.614V31.956H111.048V34.5584H102.105V21.3977Z" fill="#231F20"/>
<path d="M112.586 21.3977H116.092V31.956H121.526V34.5584H112.586V21.3977Z" fill="#231F20"/>
<path d="M133.748 29.5623C133.748 33.1628 131.409 34.7843 127.98 34.7843C124.551 34.7843 122.212 33.1628 122.212 29.5623V21.3977H125.718V28.9761C125.718 30.712 126.19 32.1819 127.98 32.1819C129.771 32.1819 130.242 30.712 130.242 28.9761V21.3977H133.748V29.5623Z" fill="#231F20"/>
<path d="M135.433 31.3153C136.552 31.8921 137.795 32.1866 139.053 32.1732C140.166 32.1732 141.221 31.9473 141.221 30.892C141.221 28.4412 134.998 29.9855 134.998 25.1982C134.998 22.0296 138.093 21.1631 140.718 21.1631C141.868 21.1499 143.013 21.3159 144.112 21.655L143.886 24.3689C142.966 23.9615 141.97 23.7558 140.964 23.7655C140.077 23.7655 138.607 23.8398 138.607 24.9895C138.607 27.12 144.83 25.6872 144.83 30.423C144.83 33.8347 141.97 34.7613 139.042 34.7613C137.714 34.7608 136.394 34.5682 135.121 34.1893L135.433 31.3153Z" fill="#231F20"/>
<path d="M152.586 21.3977H158.111L160.899 30.1457H160.936L163.859 21.3977H169.175V34.5526H165.743L165.801 24.4462H165.778L162.423 34.5526H159.183L155.98 24.4462H155.943L156.017 34.5526H152.586V21.3977Z" fill="#231F20"/>
<path d="M171.212 21.3977H180.486V23.8857H174.706V26.5968H180.14V29.0848H174.706V32.0618H180.683V34.5526H171.212V21.3977Z" fill="#231F20"/>
<path d="M182.602 21.3977H187.389C191.965 21.3977 195.176 22.8276 195.176 27.9208C195.176 32.8425 191.876 34.5584 187.389 34.5584H182.602V21.3977ZM186.108 31.956H187.467C190.086 31.956 191.556 30.5976 191.556 27.978C191.556 25.3585 190.029 24.0001 187.467 24.0001H186.108V31.956Z" fill="#231F20"/>
<path d="M196.844 21.3977H200.352V34.5526H196.844V21.3977Z" fill="#231F20"/>
<path d="M206.484 21.3977H210.774L215.844 34.5526H212.009L211.028 31.7443H206.101L205.066 34.5555H201.491L206.484 21.3977ZM208.635 24.1145H208.597L206.899 29.2621H210.199L208.635 24.1145Z" fill="#231F20"/>
</svg>
