<svg width="24" height="24" viewBox="0 0 24 24" fill="none" xmlns="http://www.w3.org/2000/svg">
<path fill-rule="evenodd" clip-rule="evenodd" d="M11.5942 3.53224L12.1089 3.12079C12.3419 2.93422 12.6856 2.96746 12.8765 3.19503C12.9566 3.29039 13.0003 3.40991 13.0002 3.53321V20.4668C13.0004 20.7611 12.7563 20.9998 12.4551 21C12.3288 21.0001 12.2065 20.9574 12.1089 20.8792L6.33473 16.2627L6.33364 16.2627H2.09109C1.4886 16.2627 1.00018 15.7856 1.00018 15.197V8.80298C1.00018 8.21442 1.4886 7.7373 2.09109 7.7373H6.33364L11.593 3.53321L11.5942 3.53224ZM7.58242 9.29953L11.0002 6.56751V17.4321L7.58366 14.7006L7.03514 14.2621L6.33364 14.2627L6.33178 14.2627L3.00018 14.2627V9.7373H6.33364H7.03476L7.58242 9.29953ZM22.2931 13.8646L20.4285 12L22.2931 10.1354C22.6836 9.74487 22.6766 9.10467 22.286 8.71414C21.8955 8.32362 21.2553 8.31658 20.8648 8.70711L19.0002 10.5717L17.1356 8.70711C16.745 8.31658 16.1048 8.32362 15.7143 8.71414C15.3238 9.10467 15.3168 9.74486 15.7073 10.1354L17.5719 12L15.7073 13.8646C15.3168 14.2551 15.3238 14.8953 15.7143 15.2859C16.1048 15.6764 16.745 15.6834 17.1356 15.2929L19.0002 13.4283L20.8648 15.2929C21.2553 15.6834 21.8955 15.6764 22.286 15.2859C22.6766 14.8953 22.6836 14.2551 22.2931 13.8646Z" fill="#FF0000"/>
</svg>
